<svg data-v-423bf9ae="" xmlns="http://www.w3.org/2000/svg" viewBox="0 0 263 90" class="iconLeft"><!----><!----><!----><g data-v-423bf9ae="" id="62b998eb-7377-464e-a7c8-3135bf9a0d47" fill="#0E261C" transform="matrix(6.5934070079975555,0,0,6.5934070079975555,110.2551817037442,4.7802206440948325)"><path d="M5.04 3.12L5.04 3.12L5.04 3.12Q5.87 3.12 6.44 3.44L6.44 3.44L6.44 3.44Q7.01 3.75 7.37 4.28L7.37 4.28L7.37 4.28Q7.73 4.80 7.89 5.49L7.89 5.49L7.89 5.49Q8.05 6.17 8.05 6.93L8.05 6.93L8.05 6.93Q8.05 7.69 7.89 8.37L7.89 8.37L7.89 8.37Q7.73 9.04 7.37 9.55L7.37 9.55L7.37 9.55Q7.01 10.05 6.44 10.35L6.44 10.35L6.44 10.35Q5.87 10.65 5.04 10.65L5.04 10.65L5.04 10.65Q4.44 10.65 4.02 10.48L4.02 10.48L4.02 10.48Q3.60 10.30 3.32 10.09L3.32 10.09L3.32 10.09Q3.00 9.84 2.79 9.53L2.79 9.53L2.42 10.50L0.97 10.50L0.97 1.55L2.84 1.55L2.84 4.21L2.84 4.21Q3.08 3.92 3.40 3.67L3.40 3.67L3.40 3.67Q3.68 3.47 4.09 3.30L4.09 3.30L4.09 3.30Q4.49 3.12 5.04 3.12ZM4.45 9.18L4.45 9.18L4.45 9.18Q4.79 9.18 5.08 9.05L5.08 9.05L5.08 9.05Q5.38 8.92 5.59 8.64L5.59 8.64L5.59 8.64Q5.81 8.36 5.94 7.93L5.94 7.93L5.94 7.93Q6.08 7.50 6.08 6.93L6.08 6.93L6.08 6.93Q6.08 6.36 5.94 5.92L5.94 5.92L5.94 5.92Q5.81 5.47 5.59 5.18L5.59 5.18L5.59 5.18Q5.38 4.89 5.08 4.73L5.08 4.73L5.08 4.73Q4.79 4.58 4.45 4.58L4.45 4.58L4.45 4.58Q3.78 4.58 3.31 5.18L3.31 5.18L3.31 5.18Q2.84 5.78 2.84 6.93L2.84 6.93L2.84 6.93Q2.84 8.09 3.31 8.64L3.31 8.64L3.31 8.64Q3.78 9.18 4.45 9.18ZM12.07 3.12L12.07 3.12L12.07 3.12Q12.60 3.12 13.01 3.30L13.01 3.30L13.01 3.30Q13.43 3.47 13.71 3.67L13.71 3.67L13.71 3.67Q14.03 3.92 14.27 4.21L14.27 4.21L14.27 1.55L16.14 1.55L16.14 10.50L14.69 10.50L14.32 9.53L14.32 9.53Q14.11 9.84 13.79 10.09L13.79 10.09L13.79 10.09Q13.51 10.30 13.08 10.48L13.08 10.48L13.08 10.48Q12.66 10.65 12.07 10.65L12.07 10.65L12.07 10.65Q11.24 10.65 10.67 10.35L10.67 10.35L10.67 10.35Q10.09 10.05 9.74 9.55L9.74 9.55L9.74 9.55Q9.38 9.04 9.22 8.37L9.22 8.37L9.22 8.37Q9.06 7.69 9.06 6.93L9.06 6.93L9.06 6.93Q9.06 6.17 9.22 5.49L9.22 5.49L9.22 5.49Q9.38 4.80 9.74 4.28L9.74 4.28L9.74 4.28Q10.09 3.75 10.67 3.44L10.67 3.44L10.67 3.44Q11.24 3.12 12.07 3.12ZM12.66 9.18L12.66 9.18L12.66 9.18Q13.33 9.18 13.80 8.64L13.80 8.64L13.80 8.64Q14.27 8.09 14.27 6.93L14.27 6.93L14.27 6.93Q14.27 5.78 13.80 5.18L13.80 5.18L13.80 5.18Q13.33 4.58 12.66 4.58L12.66 4.58L12.66 4.58Q12.32 4.58 12.03 4.73L12.03 4.73L12.03 4.73Q11.73 4.89 11.52 5.18L11.52 5.18L11.52 5.18Q11.30 5.47 11.17 5.92L11.17 5.92L11.17 5.92Q11.03 6.36 11.03 6.93L11.03 6.93L11.03 6.93Q11.03 7.50 11.17 7.93L11.17 7.93L11.17 7.93Q11.30 8.36 11.52 8.64L11.52 8.64L11.52 8.64Q11.73 8.92 12.03 9.05L12.03 9.05L12.03 9.05Q12.32 9.18 12.66 9.18ZM22.88 3.98L22.25 5.39L22.25 5.39Q21.77 5.03 21.21 4.84L21.21 4.84L21.21 4.84Q20.65 4.66 20.27 4.66L20.27 4.66L20.27 4.66Q19.91 4.66 19.70 4.79L19.70 4.79L19.70 4.79Q19.49 4.91 19.49 5.24L19.49 5.24L19.49 5.24Q19.49 5.52 19.75 5.68L19.75 5.68L19.75 5.68Q20.02 5.85 20.41 6.00L20.41 6.00L20.41 6.00Q20.80 6.15 21.27 6.31L21.27 6.31L21.27 6.31Q21.73 6.47 22.12 6.73L22.12 6.73L22.12 6.73Q22.51 6.99 22.78 7.38L22.78 7.38L22.78 7.38Q23.04 7.78 23.04 8.40L23.04 8.40L23.04 8.40Q23.04 8.99 22.83 9.41L22.83 9.41L22.83 9.41Q22.61 9.84 22.25 10.12L22.25 10.12L22.25 10.12Q21.90 10.39 21.43 10.52L21.43 10.52L21.43 10.52Q20.97 10.65 20.48 10.65L20.48 10.65L20.48 10.65Q20.13 10.65 19.73 10.58L19.73 10.58L19.73 10.58Q19.33 10.50 18.95 10.34L18.95 10.34L18.95 10.34Q18.56 10.18 18.21 9.95L18.21 9.95L18.21 9.95Q17.85 9.72 17.58 9.42L17.58 9.42L18.20 8.05L18.20 8.05Q18.69 8.58 19.25 8.86L19.25 8.86L19.25 8.86Q19.81 9.13 20.27 9.13L20.27 9.13L20.27 9.13Q20.66 9.13 21.03 8.99L21.03 8.99L21.03 8.99Q21.39 8.85 21.41 8.51L21.41 8.51L21.41 8.51Q21.42 8.19 21.16 7.99L21.16 7.99L21.16 7.99Q20.90 7.78 20.51 7.63L20.51 7.63L20.51 7.63Q20.12 7.48 19.66 7.31L19.66 7.31L19.66 7.31Q19.19 7.15 18.80 6.90L18.80 6.90L18.80 6.90Q18.41 6.65 18.14 6.27L18.14 6.27L18.14 6.27Q17.88 5.89 17.89 5.29L17.89 5.29L17.89 5.29Q17.89 4.72 18.09 4.30L18.09 4.30L18.09 4.30Q18.30 3.89 18.63 3.63L18.63 3.63L18.63 3.63Q18.97 3.37 19.41 3.25L19.41 3.25L19.41 3.25Q19.85 3.12 20.33 3.12L20.33 3.12L20.33 3.12Q20.61 3.12 20.94 3.18L20.94 3.18L20.94 3.18Q21.28 3.23 21.62 3.35L21.62 3.35L21.62 3.35Q21.97 3.46 22.30 3.61L22.30 3.61L22.30 3.61Q22.62 3.77 22.88 3.98L22.88 3.98Z"></path></g><defs data-v-423bf9ae=""><linearGradient data-v-423bf9ae="" gradientTransform="rotate(25)" id="bcb96065-a4e6-4b85-be88-cddd6eae50b1" x1="0%" y1="0%" x2="100%" y2="0%"><stop data-v-423bf9ae="" offset="0%" style="stop-color: rgb(10, 55, 50); stop-opacity: 1;"></stop><stop data-v-423bf9ae="" offset="100%" style="stop-color: rgb(85, 195, 136); stop-opacity: 1;"></stop></linearGradient></defs><g data-v-423bf9ae="" id="625f0798-b1c8-4bc2-8bd7-d548b30613c7" transform="matrix(3.02033690133878,0,0,3.02033690133878,0.6746095785795205,-6.44676146975133)" stroke="none" fill="url(#bcb96065-a4e6-4b85-be88-cddd6eae50b1)"><circle cx="25.044" cy="25.043" r="6.956"></circle><circle cx="6.956" cy="25.043" r="6.956"></circle><path d="M.172 2.201H13.74v13.568H.172zM18.432 2.201H32v13.568H18.432z"></path></g><!----></svg>